<svg width="163" height="30" viewBox="0 0 163 30" fill="none" xmlns="http://www.w3.org/2000/svg">
<g clip-path="url(#clip0_135_867)">
<path d="M14.7097 0C16.0877 0 17.3598 0.107063 18.5258 0.424013C19.6918 0.63602 20.6459 1.06003 21.4939 1.59005C22.3419 2.12007 22.9779 2.86209 23.4019 3.81718C23.826 4.77015 24.038 5.93725 24.038 7.20929C24.038 8.69227 23.72 9.96537 22.9779 10.9194C22.3419 11.8724 21.2819 12.7204 20.0098 13.3564C21.8119 13.8864 23.1899 14.8394 24.038 16.1125C24.886 17.3845 25.416 18.9746 25.416 20.7767C25.416 22.2596 25.098 23.5327 24.568 24.5928C24.038 25.6528 23.1899 26.6068 22.2359 27.2429C21.2819 27.8799 20.1158 28.41 18.8438 28.7269C17.5718 29.0438 16.2997 29.2569 15.0277 29.2569H0.823242V0H14.7097ZM13.8617 11.8724C15.0277 11.8724 15.9817 11.5544 16.7237 11.0243C17.4658 10.4943 17.7838 9.5403 17.7838 8.37426C17.7838 7.73824 17.6778 7.10222 17.4658 6.67821C17.2538 6.2542 16.9357 5.93619 16.5117 5.61818C16.0877 5.40617 15.6637 5.19416 15.1337 5.08816C14.6037 4.98216 14.0737 4.98216 13.4376 4.98216H7.28944V11.8724H13.8617ZM14.1797 24.3808C14.8157 24.3808 15.4517 24.2748 15.9817 24.1698C16.5117 24.0628 17.0417 23.8507 17.4658 23.5327C17.8898 23.2147 18.2078 22.8967 18.5258 22.3667C18.7378 21.8367 18.9498 21.1996 18.9498 20.4586C18.9498 18.9746 18.5258 17.9146 17.6778 17.1715C16.8297 16.5355 15.6637 16.2185 14.2857 16.2185H7.28944V24.3808H14.1797ZM34.6383 24.2748C35.4863 25.1228 36.7584 25.5468 38.4544 25.5468C39.6205 25.5468 40.6805 25.2288 41.5285 24.6988C42.3765 24.0617 42.9066 23.4267 43.1186 22.7897H48.3127C47.4647 25.3337 46.1927 27.1368 44.4966 28.3018C42.8006 29.3619 40.7865 29.9989 38.3484 29.9989C36.6524 29.9989 35.1683 29.6799 33.7903 29.1499C32.4122 28.6198 31.3522 27.8789 30.3982 26.8188C29.4441 25.8648 28.7021 24.6988 28.2781 23.3197C27.7481 21.9416 27.5361 20.4586 27.5361 18.7615C27.5361 17.1715 27.7481 15.6885 28.2781 14.3094C28.8081 12.9313 29.5501 11.7664 30.5042 10.7063C31.4582 9.75231 32.6242 8.90428 33.8963 8.37426C35.2743 7.84425 36.6524 7.52624 38.3484 7.52624C40.1505 7.52624 41.7405 7.84425 43.1186 8.58627C44.4966 9.32829 45.5566 10.1763 46.4047 11.4484C47.2527 12.6144 47.8887 13.9914 48.3127 15.4765C48.5247 16.9605 48.6307 18.4446 48.5247 20.1406H33.1543C33.1543 21.8367 33.7903 23.4267 34.6383 24.2748ZM41.3165 13.1444C40.5745 12.4024 39.4084 11.9784 38.0304 11.9784C37.0764 11.9784 36.3344 12.1893 35.6983 12.5084C35.0623 12.8264 34.6383 13.2494 34.2143 13.6744C33.7903 14.0995 33.5783 14.6285 33.4723 15.1585C33.3663 15.6885 33.2603 16.1114 33.2603 16.5365H42.8006C42.5886 14.9465 42.0585 13.8864 41.3165 13.1444ZM56.793 0V11.0243H56.899C57.641 9.75231 58.5951 8.90428 59.7611 8.37426C60.9271 7.84425 61.9872 7.52624 63.1532 7.52624C64.7432 7.52624 66.0153 7.73824 66.9693 8.16226C67.9233 8.58627 68.7714 9.22229 69.3014 9.96431C69.8314 10.7063 70.2554 11.6604 70.4674 12.7204C70.6794 13.7804 70.7854 14.9475 70.7854 16.3245V29.3629H64.9553V17.3845C64.9553 15.5825 64.6372 14.3104 64.1072 13.4624C63.5772 12.6144 62.6232 12.1904 61.2451 12.1904C59.6551 12.1904 58.489 12.7204 57.853 13.5695C57.111 14.5225 56.793 16.1125 56.793 18.2326V29.3629H50.9628V0H56.793ZM75.0256 11.2364C75.6616 10.2823 76.4036 9.6463 77.3576 9.00922C78.3117 8.47921 79.3717 8.05625 80.5377 7.84319C81.7038 7.63118 82.8688 7.52518 84.0359 7.52518C85.0959 7.52518 86.1559 7.63118 87.323 7.73718C88.383 7.84319 89.4431 8.16014 90.29 8.58521C91.2441 9.00816 91.8801 9.64524 92.5172 10.3873C93.0461 11.1303 93.3641 12.1904 93.3641 13.4624V24.5928C93.3641 25.5468 93.4701 26.5008 93.5761 27.3499C93.6832 28.1979 93.9991 28.94 94.3182 29.3629H88.382C88.1689 29.1509 88.0629 28.7269 87.958 28.41C87.852 28.0909 87.852 27.6679 87.852 27.3499C86.8979 28.3029 85.8379 28.94 84.5659 29.3629C83.2938 29.7869 82.0218 29.8929 80.7497 29.8929C79.6897 29.8929 78.8417 29.7869 77.8876 29.47C77.0396 29.258 76.2976 28.8329 75.5556 28.3029C74.9196 27.7729 74.3895 27.1369 73.9655 26.2899C73.6475 25.4408 73.4355 24.5928 73.4355 23.4267C73.4355 22.2596 73.6475 21.1996 74.0715 20.4586C74.4955 19.7166 75.0256 19.0806 75.6616 18.5506C76.2976 18.1276 77.1456 17.7026 77.9937 17.4905C78.8417 17.2796 79.6897 17.0676 80.6437 16.9605L83.1878 16.6425C84.0358 16.5365 84.7779 16.4305 85.4139 16.3245C86.0499 16.1125 86.5799 15.9005 87.0039 15.5825C87.428 15.2645 87.534 14.8405 87.534 14.2044C87.534 13.5684 87.428 13.0384 87.216 12.7204C87.0039 12.4024 86.6859 12.0844 86.3679 11.8724C86.0489 11.6604 85.6259 11.5544 85.2019 11.4494C84.7779 11.3424 84.2478 11.3424 83.7178 11.3424C82.5518 11.3424 81.7038 11.5544 81.0677 12.0844C80.4317 12.6144 80.0077 13.4624 79.9017 14.5225H74.0715C74.0715 13.2504 74.4956 12.0844 75.0256 11.2364ZM86.5789 19.5046C86.2619 19.6106 85.8379 19.7166 85.4128 19.8226C84.9888 19.9297 84.5648 19.9297 84.0348 20.0346C83.6118 20.1406 83.0818 20.1406 82.6567 20.2466L81.3847 20.5646C80.9607 20.6706 80.5367 20.8827 80.3247 21.0947C80.0067 21.3067 79.7947 21.6247 79.5826 21.9427C79.2657 22.3667 79.2657 22.7907 79.2657 23.3207C79.2657 23.8507 79.3717 24.2748 79.5837 24.5928C79.7957 24.9108 80.0077 25.2299 80.3257 25.4408C80.6437 25.6528 81.0678 25.7599 81.4918 25.8648C81.9158 25.9698 82.3387 25.9708 82.8688 25.9708C84.0359 25.9708 84.8828 25.7599 85.5188 25.4408C86.1559 25.0178 86.5789 24.5928 86.8979 24.0628C87.2159 23.5327 87.4279 23.0027 87.4279 22.4727C87.534 21.9427 87.534 21.5197 87.534 21.2007V18.9746C87.216 19.1866 86.8979 19.3997 86.5789 19.5046ZM102.163 8.05625V11.0243H102.269C103.01 9.75231 103.966 8.90428 105.131 8.37426C106.298 7.84425 107.57 7.52624 108.735 7.52624C110.325 7.52624 111.597 7.73824 112.551 8.16226C113.611 8.58627 114.354 9.22229 114.884 9.96431C115.414 10.7063 115.837 11.6604 116.155 12.7204C116.367 13.7804 116.474 14.9475 116.474 16.3245V29.3629H110.644V17.3845C110.644 15.5825 110.325 14.3104 109.795 13.4624C109.265 12.6144 108.311 12.0844 106.827 12.0844C105.237 12.0844 104.069 12.7204 103.328 13.6744C102.586 14.6285 102.268 16.2185 102.268 18.3386V29.4689H96.4382V8.05625H102.163ZM129.51 11.8724C128.557 11.8724 127.814 12.0844 127.179 12.5095C126.543 12.9324 126.013 13.4624 125.589 14.2055C125.165 14.8415 124.953 15.5835 124.74 16.4316C124.529 17.2807 124.529 18.0216 124.529 18.8707C124.529 19.6117 124.635 20.4608 124.74 21.2017C124.953 22.0508 125.164 22.6858 125.589 23.3218C126.013 23.9589 126.437 24.4889 127.073 24.9118C127.709 25.3359 128.45 25.5489 129.404 25.5489C130.783 25.5489 131.843 25.1249 132.69 24.3818C133.433 23.6409 133.963 22.5808 134.069 21.2017H139.688C139.265 24.0638 138.205 26.1839 136.4 27.669C134.599 29.152 132.267 29.8951 129.404 29.8951C127.814 29.8951 126.33 29.577 125.058 29.047C123.679 28.517 122.619 27.775 121.666 26.821C120.713 25.8669 119.969 24.7009 119.439 23.4289C118.909 22.0508 118.698 20.6717 118.698 19.0817C118.698 17.3856 118.909 15.9016 119.439 14.5235C119.969 13.1455 120.606 11.8734 121.559 10.8134C122.513 9.75337 123.679 9.01134 124.952 8.37532C126.329 7.84531 127.813 7.5273 129.509 7.5273C130.782 7.5273 131.948 7.7393 133.113 8.05731C134.278 8.37532 135.339 8.90534 136.187 9.5403C137.141 10.1774 137.883 11.0243 138.413 12.0844C138.943 13.0384 139.263 14.3104 139.367 15.6885H133.643C133.434 13.1444 132.055 11.8724 129.51 11.8724ZM31.9882 2.01406H43.8606V4.87615H31.9882V2.01406ZM148.486 24.2748C149.335 25.1228 150.712 25.5468 152.302 25.5468C153.469 25.5468 154.529 25.2288 155.376 24.6988C156.225 24.0617 156.755 23.4267 156.966 22.7897H162.055C161.206 25.3337 159.935 27.1368 158.238 28.3018C156.541 29.3619 154.528 29.9989 152.09 29.9989C150.394 29.9989 148.91 29.6799 147.531 29.1499C146.226 28.6634 145.061 27.8628 144.14 26.8188C143.186 25.8648 142.444 24.6988 142.02 23.3197C141.49 21.9416 141.278 20.4586 141.278 18.7615C141.278 17.1715 141.49 15.6885 142.02 14.3094C142.53 12.9799 143.285 11.7578 144.246 10.7063C145.2 9.75231 146.366 8.90428 147.638 8.37426C149.016 7.84425 150.5 7.52624 152.09 7.52624C153.891 7.52624 155.481 7.84425 156.754 8.58627C158.131 9.32829 159.191 10.1763 160.04 11.4484C160.888 12.6144 161.524 13.9914 161.948 15.4765C162.371 16.9595 162.478 18.5495 162.371 20.2466H147.001C147.001 21.8367 147.638 23.4267 148.486 24.2748ZM155.27 13.1444C154.528 12.4024 153.361 11.9784 151.984 11.9784C151.03 11.9784 150.287 12.1893 149.651 12.5084C149.015 12.8264 148.485 13.2494 148.168 13.6744C147.851 14.0995 147.531 14.6285 147.426 15.1585C147.321 15.6885 147.215 16.1114 147.215 16.5365H156.755C156.436 14.9465 155.906 13.8864 155.27 13.1444Z" fill="black" fill-opacity="0.5"/>
</g>
<defs>
<clipPath id="clip0_135_867">
<rect width="161.638" height="30" fill="white" transform="translate(0.79834)"/>
</clipPath>
</defs>
</svg>
