<svg width="122" height="30" viewBox="0 0 122 30" fill="none" xmlns="http://www.w3.org/2000/svg">
<g clip-path="url(#clip0_135_864)">
<path d="M37.2696 11.9815C38.6649 11.9815 39.7958 10.85 39.7958 9.45457C39.7958 8.05886 38.6649 6.92767 37.2696 6.92767C35.8744 6.92767 34.7434 8.05886 34.7434 9.45457C34.7434 10.85 35.8744 11.9815 37.2696 11.9815ZM120.641 20.615C120.257 20.3448 119.96 20.3 119.714 20.8248C115.471 30.0143 108.321 25.4286 109.031 25.8322C110.617 25.1067 114.788 21.7615 114.158 17.1424C113.775 14.3196 111.352 13.0674 108.781 13.5158C104.292 14.2984 102.64 19.1403 103.481 23.427C103.628 24.1631 103.891 24.7703 104.153 25.365C99.0806 29.4903 97.0661 21.6722 96.8375 20.7379C96.8284 20.6879 100.754 17.4155 101.846 9.61767C102.991 1.44505 100.384 -0.043047 97.7177 0.00338156C92.7844 0.0893339 91.4513 10.3967 93.2422 18.9872C93.0922 19.0262 92.3941 19.4129 91.2725 19.4562C90.4653 16.9165 87.0165 14.6903 86.1139 15.5481C83.8549 17.6941 86.6618 21.8896 88.6368 22.2186C87.4503 29.526 80.0306 27.7162 81.4118 18.5612C83.828 14.0743 85.6656 7.40267 85.3377 3.37505C85.2215 1.9491 84.1673 0.0386197 81.783 0.133382C77.197 0.31481 76.6984 10.625 77.2361 17.9427C77.2094 17.7624 76.9542 18.8317 75.0749 19.3634C74.6303 16.896 70.6575 14.4193 69.7222 15.61C67.9715 17.8386 71.0056 21.8122 72.4427 22.0893C71.2563 29.3965 63.8368 27.5867 65.218 18.4317C67.6341 13.945 69.4715 7.27338 69.1437 3.24576C69.0275 1.81957 67.9734 -0.0909042 65.5889 0.00361966C61.003 0.185286 60.5044 10.4955 61.042 17.8131C61.0151 17.63 60.7539 18.7346 58.798 19.2574C58.7325 16.0562 54.7451 14.5884 53.7872 15.6098C52.0801 17.4305 54.1782 21.1662 56.1192 22.0893C54.9327 29.3965 47.5132 27.5867 48.8944 18.4317C51.3106 13.945 53.1482 7.27338 52.8201 3.24576C52.7042 1.81957 51.6499 -0.0909042 49.2653 0.00361966C44.6796 0.185286 44.3106 11.0139 44.8482 18.3312C43.3377 24.8029 38.2722 32.8848 38.9303 16.695C38.9953 15.5593 39.0663 15.1281 38.5001 14.7029C38.0758 14.3724 37.1111 14.5315 36.5837 14.5446C35.9427 14.5703 35.782 14.9453 35.6403 15.5122C35.3103 16.976 35.2511 18.395 35.2039 20.3312C35.173 21.237 35.1003 21.6596 34.7515 22.8946C34.4032 24.1293 32.4158 26.3862 31.3277 26.0089C29.8182 25.4898 30.3134 21.2284 30.5963 18.3005C30.832 15.9867 30.0772 14.9477 28.1434 14.5698C27.0113 14.3339 26.3234 14.37 25.1444 13.9984C24.0294 13.647 23.7772 11.5379 21.3992 12.2408C20.0984 12.6255 20.9346 15.3815 20.622 17.4241C19.0851 27.472 15.8872 27.7479 14.4037 22.867C21.0853 6.50243 16.3365 0.0510006 13.5568 0.0510006C10.6615 0.0510006 7.35201 2.04529 8.75344 14.8053C8.07201 14.6065 7.86249 14.4993 7.11653 14.4993C2.89772 14.4993 0.0234375 17.9098 0.0234375 22.117C0.0234375 26.3241 2.89796 29.7348 7.11677 29.7348C9.60725 29.7348 11.3558 28.6022 12.6801 26.85C13.5442 28.0874 14.5963 29.7539 16.5203 29.6789C22.2553 29.4555 23.9232 17.6915 24.1201 17.0353C24.7332 17.1298 25.3132 17.3086 25.8794 17.4031C26.8227 17.5448 26.8913 17.9181 26.8699 18.867C26.6199 26.8679 28.0963 29.6693 31.4453 29.6693C33.3113 29.6693 34.9744 27.836 36.1201 26.525C36.9758 28.2912 38.3394 29.6153 40.1687 29.6691C44.6013 29.7793 46.2984 22.7143 46.1437 23.6441C46.0222 24.3736 47.5818 29.6293 52.1451 29.6484C57.7977 29.6722 58.8484 23.456 58.9737 22.4148C58.9894 22.2077 58.9963 22.2291 58.9737 22.4148L58.9694 22.4779C60.7639 22.1441 61.6899 21.182 61.6899 21.182C61.6899 21.182 63.1308 29.745 68.4684 29.6486C74.0113 29.5481 75.0565 23.9291 75.1937 22.8334C75.2118 22.5734 75.2225 22.6039 75.1937 22.8334C75.1929 22.8441 75.1922 22.8548 75.1915 22.8655C77.3232 22.09 77.8839 21.3117 77.8839 21.3117C77.8839 21.3117 79.0292 29.7046 84.6625 29.7779C89.6825 29.8436 91.543 24.7029 91.5539 22.5512C92.4006 22.5603 93.9668 22.0489 93.9301 22.0198C93.9301 22.0198 95.7689 29.3579 100.904 29.7348C103.315 29.9117 105.123 28.3781 106.154 27.6786C108.577 29.6408 116.645 32.147 121.739 23.51C122.458 22.2705 120.912 20.8062 120.641 20.615ZM6.9132 26.8858C4.45177 26.8858 2.87344 24.6098 2.87344 22.1558C2.87344 19.702 4.32225 17.426 6.78368 17.426C7.89129 17.426 8.50749 17.5479 9.3701 18.2981C9.52653 18.9146 9.96987 20.3365 10.1856 20.9822C10.4746 21.8462 10.8184 22.5817 11.1651 23.3822C10.6699 25.4353 9.04629 26.8858 6.9132 26.8858ZM12.9113 18.3703C12.8089 18.2072 12.8303 18.3074 12.7158 18.1534C12.2646 16.926 11.3951 14.1865 11.2944 11.0748C11.1806 7.55481 11.7672 3.42886 13.4968 3.42886C14.6687 3.42886 15.9142 11.7908 12.9111 18.3703H12.9113ZM47.5687 14.7027C47.2911 12.6139 47.2765 3.30195 49.512 3.55838C50.7463 4.05838 48.7294 12.8453 47.5687 14.7027ZM63.8922 14.7027C63.6146 12.6139 63.6001 3.30195 65.8356 3.55838C67.0699 4.05838 65.053 12.8453 63.8922 14.7027ZM80.0863 14.8324C79.8084 12.7434 79.7942 3.43148 82.0294 3.68791C83.2637 4.18791 81.2468 12.975 80.0863 14.8324ZM97.9644 3.01338C100.008 2.80148 99.9239 11.7267 95.8215 17.3615C95.2925 15.3248 94.4813 3.71267 97.9644 3.01314V3.01338ZM106.555 22.2186C105.898 18.9027 107.595 16.7248 109.343 16.486C109.954 16.3884 110.84 16.7843 111.017 17.5246C111.307 18.9196 110.975 20.9889 107.061 23.6143C107.067 23.6367 106.701 22.9572 106.555 22.2186H106.555Z" fill="black" fill-opacity="0.5"/>
</g>
<defs>
<clipPath id="clip0_135_864">
<rect width="121.951" height="30" fill="white"/>
</clipPath>
</defs>
</svg>
