<svg width="153" height="30" viewBox="0 0 153 30" fill="none" xmlns="http://www.w3.org/2000/svg">
<g clip-path="url(#clip0_135_866)">
<path d="M77.5697 26.6515C77.5697 27.1795 77.5697 27.2995 77.9258 27.6235L79.9195 29.5915V29.6755H71.0782V25.8955C70.1883 28.3868 67.8349 30.0342 65.2156 29.9995C60.6703 29.9995 57.3711 26.3995 57.3711 19.7756C57.3711 13.5718 60.9314 9.43183 65.9276 9.43183C68.1423 9.29086 70.2032 10.5806 71.0663 12.6478V4.30792C71.132 3.92172 70.9757 3.53122 70.6628 3.29994L68.764 1.45197V1.36798L77.5697 0.323994V26.6515ZM71.0782 25.4515V13.0078C70.4374 12.203 69.4652 11.7425 68.4436 11.7598C66.2955 11.7598 64.2187 13.7278 64.2187 19.5716C64.2187 25.0435 66.0107 26.9755 68.2418 26.9755C69.373 26.9521 70.4259 26.3864 71.0782 25.4515ZM83.4323 29.6755V12.8758C83.4889 12.5006 83.3551 12.1218 83.0763 11.8678L81.1181 9.82782V9.74382H89.9595V26.7835C89.9595 27.3115 89.9595 27.4315 90.3155 27.7555L92.2618 29.6035V29.6875L83.4323 29.6755ZM83.1119 3.59994C83.1119 1.61175 84.7059 0 86.6722 0C88.6385 0 90.2324 1.61175 90.2324 3.59994C90.2324 5.58812 88.6385 7.19987 86.6722 7.19987C84.7059 7.19987 83.1119 5.58812 83.1119 3.59994ZM113.813 26.6155C113.813 27.1435 113.813 27.2995 114.169 27.6235L116.163 29.5915V29.6755H107.274V25.3675C106.465 28.0914 103.999 29.9676 101.186 29.9995C97.2462 29.9995 95.1338 27.0955 95.1338 21.5996C95.1338 18.9477 95.1338 16.0437 95.2168 12.7798C95.2819 12.4144 95.1456 12.0421 94.8608 11.8078L92.9026 9.82782V9.74382H101.673C101.673 9.86382 101.673 20.1716 101.673 20.6996C101.673 24.2996 102.195 26.6995 104.426 26.6995C105.624 26.6238 106.704 25.9425 107.298 24.8876V12.8878C107.355 12.5126 107.221 12.1338 106.942 11.8798L104.972 9.82782V9.74382H113.813V26.6155ZM143.91 29.6755C143.91 29.0275 144.028 20.7716 144.028 18.8757C144.028 15.2757 143.47 12.7918 140.966 12.7918C139.706 12.8311 138.54 13.4722 137.821 14.5197C138.073 15.6416 138.192 16.7895 138.177 17.9397C138.177 20.4356 138.094 23.6156 138.059 26.7955C137.994 27.1609 138.13 27.5332 138.415 27.7675L140.409 29.6155V29.6995H131.484C131.484 29.0995 131.603 20.7956 131.603 18.8997C131.603 15.2397 131.045 12.8158 128.577 12.8158C127.36 12.8599 126.25 13.5298 125.633 14.5917V26.8315C125.633 27.3595 125.633 27.4795 125.989 27.8035L127.936 29.6515V29.7355H119.106V12.9358C119.163 12.5606 119.029 12.1818 118.75 11.9278L116.792 9.82782V9.74382H125.633V14.0157C126.453 11.1953 129.066 9.30056 131.971 9.41983C134.914 9.41983 136.908 11.0758 137.75 14.2197C138.686 11.3202 141.38 9.37452 144.396 9.41983C148.336 9.41983 150.567 12.3598 150.567 17.9157C150.567 20.5676 150.484 23.5916 150.449 26.7715C150.379 27.1479 150.538 27.5298 150.852 27.7435L152.798 29.5915V29.6755H143.91ZM32.8408 27.0595L35.4636 29.5915V29.6755H22.16V29.5915L24.8302 27.0595C25.115 26.8252 25.2513 26.4529 25.1862 26.0875V9.89982C25.1862 9.21583 25.1862 8.29185 25.3049 7.49987L16.333 29.9995H16.2262L6.93388 9.29983C6.73213 8.78384 6.67279 8.74784 6.54225 8.39985V21.9716C6.431 22.8799 6.58357 23.8014 6.98135 24.6236L10.7196 29.5915V29.6755H0.79834V29.5915L4.53663 24.6116C4.93147 23.7927 5.08395 22.876 4.97573 21.9716V6.97187C5.03651 6.23332 4.81574 5.49922 4.35861 4.91991L1.71214 1.45197V1.36798H11.2062L19.1575 18.8997L26.1594 1.36798H35.4517V1.45197L32.8408 4.39192C32.528 4.6232 32.3716 5.0137 32.4373 5.3999V26.0875C32.3681 26.4639 32.5267 26.8458 32.8408 27.0595ZM43.2487 18.9477V19.0317C43.2487 24.1676 45.8714 26.2315 48.9451 26.2315C51.5117 26.3201 53.887 24.8649 54.9976 22.5236H55.0807C54.0126 27.5995 50.9033 29.9995 46.2512 29.9995C41.2312 29.9995 36.496 26.9395 36.496 19.8476C36.496 12.3958 41.2431 9.41983 46.4885 9.41983C50.7134 9.41983 55.2112 11.4358 55.2112 17.9157C55.2112 18.0357 55.2112 18.4677 55.2112 18.9477H43.2487ZM43.2487 17.9157H49.0994C49.0994 17.3877 49.0994 17.0277 49.0994 16.8717C49.0994 11.5918 48.0195 10.1878 46.3936 10.1878C44.4236 10.1878 43.2249 12.2878 43.2249 17.9157H43.2487Z" fill="black" fill-opacity="0.5"/>
</g>
<defs>
<clipPath id="clip0_135_866">
<rect width="152" height="30" fill="white" transform="translate(0.79834)"/>
</clipPath>
</defs>
</svg>
